<mxfile host="app.diagrams.net" modified="2022-09-30T10:13:36.189Z" agent="5.0 (Windows NT 10.0; Win64; x64) AppleWebKit/537.36 (KHTML, like Gecko) Chrome/105.0.0.0 Safari/537.36" etag="eu-CC-TTJCL8BS15XHhA" version="20.3.7" type="github">
  <diagram id="4CwN3KZsMOTY6ujSmQB6" name="Strona-1">
    <mxGraphModel dx="865" dy="408" grid="1" gridSize="10" guides="1" tooltips="1" connect="1" arrows="1" fold="1" page="1" pageScale="1" pageWidth="827" pageHeight="1169" math="0" shadow="0">
      <root>
        <mxCell id="0" />
        <mxCell id="1" parent="0" />
        <mxCell id="_nOywJI9e1dx9MGVy76T-2" value="" style="endArrow=open;html=1;rounded=0;startSize=15;endSize=15;endFill=0;dashed=1;strokeWidth=2;" edge="1" parent="1">
          <mxGeometry width="50" height="50" relative="1" as="geometry">
            <mxPoint x="200" y="80" as="sourcePoint" />
            <mxPoint x="420" y="80" as="targetPoint" />
          </mxGeometry>
        </mxCell>
        <mxCell id="_nOywJI9e1dx9MGVy76T-3" value="" style="endArrow=open;html=1;rounded=0;startSize=15;endSize=15;endFill=0;strokeWidth=2;" edge="1" parent="1">
          <mxGeometry width="50" height="50" relative="1" as="geometry">
            <mxPoint x="200" y="140" as="sourcePoint" />
            <mxPoint x="420" y="140" as="targetPoint" />
          </mxGeometry>
        </mxCell>
        <mxCell id="_nOywJI9e1dx9MGVy76T-4" value="" style="endArrow=diamondThin;html=1;rounded=0;startSize=15;endSize=21;endFill=0;strokeWidth=2;" edge="1" parent="1">
          <mxGeometry width="50" height="50" relative="1" as="geometry">
            <mxPoint x="200" y="200" as="sourcePoint" />
            <mxPoint x="425" y="200" as="targetPoint" />
          </mxGeometry>
        </mxCell>
        <mxCell id="_nOywJI9e1dx9MGVy76T-5" value="" style="endArrow=diamondThin;html=1;rounded=0;startSize=15;endSize=21;endFill=1;strokeWidth=2;" edge="1" parent="1">
          <mxGeometry width="50" height="50" relative="1" as="geometry">
            <mxPoint x="200" y="260" as="sourcePoint" />
            <mxPoint x="426" y="260" as="targetPoint" />
          </mxGeometry>
        </mxCell>
        <mxCell id="_nOywJI9e1dx9MGVy76T-6" value="" style="endArrow=block;html=1;rounded=0;startSize=15;endSize=15;endFill=0;strokeWidth=2;" edge="1" parent="1">
          <mxGeometry width="50" height="50" relative="1" as="geometry">
            <mxPoint x="200" y="320" as="sourcePoint" />
            <mxPoint x="420" y="320" as="targetPoint" />
          </mxGeometry>
        </mxCell>
        <mxCell id="_nOywJI9e1dx9MGVy76T-7" value="Zależność" style="text;html=1;strokeColor=none;fillColor=none;align=center;verticalAlign=middle;whiteSpace=wrap;rounded=0;fontStyle=1;fontSize=15;" vertex="1" parent="1">
          <mxGeometry x="250" y="50" width="100" height="30" as="geometry" />
        </mxCell>
        <mxCell id="_nOywJI9e1dx9MGVy76T-8" value="Asocjacja" style="text;html=1;strokeColor=none;fillColor=none;align=center;verticalAlign=middle;whiteSpace=wrap;rounded=0;fontStyle=1;fontSize=15;" vertex="1" parent="1">
          <mxGeometry x="250" y="110" width="100" height="30" as="geometry" />
        </mxCell>
        <mxCell id="_nOywJI9e1dx9MGVy76T-9" value="Agregacja częściowa" style="text;html=1;strokeColor=none;fillColor=none;align=center;verticalAlign=middle;whiteSpace=wrap;rounded=0;fontStyle=1;fontSize=15;" vertex="1" parent="1">
          <mxGeometry x="205" y="170" width="190" height="30" as="geometry" />
        </mxCell>
        <mxCell id="_nOywJI9e1dx9MGVy76T-11" value="Agregacja całkowita" style="text;html=1;strokeColor=none;fillColor=none;align=center;verticalAlign=middle;whiteSpace=wrap;rounded=0;fontStyle=1;fontSize=15;" vertex="1" parent="1">
          <mxGeometry x="205" y="230" width="190" height="30" as="geometry" />
        </mxCell>
        <mxCell id="_nOywJI9e1dx9MGVy76T-12" value="Dziedziczenie" style="text;html=1;strokeColor=none;fillColor=none;align=center;verticalAlign=middle;whiteSpace=wrap;rounded=0;fontStyle=1;fontSize=15;" vertex="1" parent="1">
          <mxGeometry x="250" y="290" width="100" height="30" as="geometry" />
        </mxCell>
        <mxCell id="_nOywJI9e1dx9MGVy76T-18" value="Jedna klasa chwilowo używa drugiej" style="text;html=1;strokeColor=none;fillColor=none;align=center;verticalAlign=middle;whiteSpace=wrap;rounded=0;fontSize=15;" vertex="1" parent="1">
          <mxGeometry x="440" y="60" width="230" height="30" as="geometry" />
        </mxCell>
        <mxCell id="_nOywJI9e1dx9MGVy76T-19" value="Jedna klasa używa drugiej lecz siła relacji jest niedookreślona" style="text;html=1;strokeColor=none;fillColor=none;align=center;verticalAlign=middle;whiteSpace=wrap;rounded=0;fontSize=15;" vertex="1" parent="1">
          <mxGeometry x="440" y="120" width="230" height="30" as="geometry" />
        </mxCell>
        <mxCell id="_nOywJI9e1dx9MGVy76T-20" value="Jedna klasa używa drugiej lecz nie jest za nią odpowiedzialna" style="text;html=1;strokeColor=none;fillColor=none;align=center;verticalAlign=middle;whiteSpace=wrap;rounded=0;fontSize=15;" vertex="1" parent="1">
          <mxGeometry x="440" y="180" width="230" height="30" as="geometry" />
        </mxCell>
        <mxCell id="_nOywJI9e1dx9MGVy76T-21" value="Jedna klasa używa drugiej i są od siebie całkowicie zależne" style="text;html=1;strokeColor=none;fillColor=none;align=center;verticalAlign=middle;whiteSpace=wrap;rounded=0;fontSize=15;" vertex="1" parent="1">
          <mxGeometry x="440" y="240" width="230" height="30" as="geometry" />
        </mxCell>
        <mxCell id="_nOywJI9e1dx9MGVy76T-22" value="Jedna klasa jest rozszerzeniem drugiej" style="text;html=1;strokeColor=none;fillColor=none;align=center;verticalAlign=middle;whiteSpace=wrap;rounded=0;fontSize=15;" vertex="1" parent="1">
          <mxGeometry x="440" y="300" width="230" height="30" as="geometry" />
        </mxCell>
      </root>
    </mxGraphModel>
  </diagram>
</mxfile>
